<?xml version="1.0" encoding="UTF-8"?>
<!DOCTYPE svg PUBLIC "-//W3C//DTD SVG 1.1//EN" "http://www.w3.org/Graphics/SVG/1.1/DTD/svg11.dtd">
<svg version="1.1" xmlns="http://www.w3.org/2000/svg" xmlns:xlink="http://www.w3.org/1999/xlink" x="0" y="0" width="1500" height="667" viewBox="0, 0, 1500, 667">
  <g id="Layer_2" display="none">
    <path d="M0.5,0.5 L365.5,0.5 L365.5,667.5 L0.5,667.5 L0.5,0.5 z" fill-opacity="0" stroke="#000000" stroke-width="1" stroke-opacity="0.773"/>
    <path d="M430.5,0.5 L795.5,0.5 L795.5,667.5 L430.5,667.5 L430.5,0.5 z" fill-opacity="0" stroke="#000000" stroke-width="1" stroke-opacity="0.773"/>
  </g>
  <g id="Layer_1">
    <path d="M1042.667,239.333 L1281.333,239.333 L1281.333,492.332 L1042.667,492.332 L1042.667,239.333 z" fill="#FFFFFF"/>
    <g>
      <path d="M1130.15,440.332 C1133.589,440.332 1136.355,437.566 1136.355,434.127 C1136.355,430.689 1133.589,427.923 1130.15,427.923 C1126.711,427.923 1123.945,430.689 1123.945,434.127 C1123.945,437.591 1126.711,440.332 1130.15,440.332" fill="#000000"/>
      <path d="M1180.336,440.208 C1183.775,440.208 1186.541,437.417 1186.541,433.953 C1186.541,430.514 1183.775,427.723 1180.336,427.723 C1176.898,427.723 1174.132,430.514 1174.132,433.953 C1174.132,437.417 1176.873,440.208 1180.336,440.208" fill="#000000"/>
      <path d="M1117.89,421.842 C1117.89,421.842 1114.252,421.643 1114.252,417.905 L1114.252,417.556 C1114.252,413.868 1117.89,413.619 1117.89,413.619 L1192.347,413.619 C1192.347,413.619 1196.01,413.968 1196.01,417.556 L1196.01,417.905 C1196.01,421.494 1192.347,421.842 1192.347,421.842 L1117.89,421.842 z" fill="#000000"/>
      <path d="M1169.621,259.671 C1178.717,259.671 1186.118,252.27 1186.118,243.174 C1186.118,234.079 1178.717,226.728 1169.621,226.728 C1160.526,226.728 1153.125,234.079 1153.125,243.174 C1153.125,252.295 1160.526,259.671 1169.621,259.671" fill="#000000"/>
      <path d="M1080.138,403.851 C1079.365,405.321 1078.917,406.966 1078.917,408.76 C1078.917,414.566 1083.651,419.276 1089.482,419.276 C1093.669,419.276 1097.282,416.834 1098.976,413.345 L1134.959,351.472 L1120.033,336.545 L1080.138,403.851 z" fill="#000000"/>
      <path d="M1158.134,401.06 C1156.439,404.574 1152.826,406.991 1148.64,406.991 C1142.858,406.991 1138.124,402.281 1138.124,396.475 C1138.124,394.681 1138.572,393.036 1139.345,391.566 L1155.019,364.031 L1124.443,333.655 C1112.732,321.868 1121.104,309.135 1121.104,309.135 L1137.551,280.079 L1093.918,280.104 C1089.084,280.104 1085.246,276.217 1085.246,271.457 C1085.246,266.723 1089.084,262.835 1093.918,262.835 L1225.988,262.835 C1230.747,262.835 1234.585,266.723 1234.585,271.507 C1234.585,276.267 1230.747,280.104 1225.988,280.104 L1175.602,280.104 L1151.555,322.217 L1176.05,346.413 C1184.622,354.636 1179.065,363.881 1179.065,363.881 L1158.134,401.06 z" fill="#000000"/>
    </g>
    <path d="M501.357,104.489 L502.823,104.489 L502.823,88.693 L510.802,88.693 C518.021,88.693 521.929,85.057 521.929,78.706 C521.929,72.464 518.944,68.773 510.042,68.773 L501.357,68.773 z M502.823,87.499 L502.823,70.076 L509.987,70.076 C517.966,70.076 520.409,73.17 520.409,78.76 C520.409,84.351 517.315,87.499 510.585,87.499 z" fill="#000000"/>
    <path d="M528.714,104.597 L530.125,104.597 L530.125,83.32 C531.97,81.257 534.902,79.629 538.213,79.629 C538.701,79.629 539.298,79.737 539.732,79.846 L539.732,78.598 C539.407,78.489 538.81,78.435 538.267,78.435 C534.739,78.435 531.808,80.28 530.179,82.017 L530.071,82.017 L530.071,78.706 L528.714,78.706 z" fill="#000000"/>
    <path d="M556.396,104.977 C560.141,104.977 562.91,104.109 564.484,103.186 L564.484,102.155 C562.747,102.915 560.033,103.783 556.559,103.783 C549.123,103.783 545.703,99.821 545.703,92.005 L545.703,91.082 L565.461,91.082 L565.461,90.43 C565.461,82.886 562.421,78.326 555.473,78.326 C549.286,78.326 544.346,82.506 544.346,91.407 L544.346,92.005 C544.346,100.526 548.363,104.977 556.396,104.977 z M555.419,79.466 C561.39,79.466 563.995,83.428 563.995,89.942 L545.757,89.942 C546.192,82.831 550.263,79.466 555.419,79.466 z" fill="#000000"/>
    <path d="M578.325,104.977 C584.513,104.977 586.847,101.883 586.847,98.084 C586.847,93.741 584.621,92.276 580.279,90.973 L577.131,90.051 C573.44,88.911 572.137,87.608 572.137,84.46 C572.137,81.474 574.308,79.52 578.759,79.52 C581.256,79.52 583.753,80.172 585.544,81.04 L585.544,79.9 C584.133,79.086 581.907,78.326 578.65,78.326 C573.494,78.326 570.834,80.823 570.834,84.514 C570.834,88.422 572.68,90.105 576.642,91.19 L579.79,92.167 C583.861,93.307 585.49,94.556 585.49,98.138 C585.49,101.286 583.698,103.783 578.216,103.783 C574.58,103.783 572.354,102.915 570.346,101.938 L570.346,103.132 C572.083,104.055 574.742,104.977 578.325,104.977 z" fill="#000000"/>
    <path d="M599.819,104.977 C606.007,104.977 608.341,101.883 608.341,98.084 C608.341,93.741 606.116,92.276 601.773,90.973 L598.625,90.051 C594.934,88.911 593.632,87.608 593.632,84.46 C593.632,81.474 595.803,79.52 600.254,79.52 C602.75,79.52 605.247,80.172 607.039,81.04 L607.039,79.9 C605.627,79.086 603.402,78.326 600.145,78.326 C594.989,78.326 592.329,80.823 592.329,84.514 C592.329,88.422 594.174,90.105 598.137,91.19 L601.285,92.167 C605.356,93.307 606.984,94.556 606.984,98.138 C606.984,101.286 605.193,103.783 599.711,103.783 C596.074,103.783 593.849,102.915 591.84,101.938 L591.84,103.132 C593.577,104.055 596.237,104.977 599.819,104.977 z" fill="#000000"/>
    <path d="M635.698,104.977 C639.769,104.977 642.483,103.403 643.677,102.263 L643.731,102.263 L643.84,104.597 L645.142,104.597 L645.142,85.545 C645.142,80.389 642.211,78.326 637.218,78.326 C634.558,78.326 632.17,78.76 629.999,79.629 L629.999,80.715 C632.007,80.063 634.287,79.52 636.783,79.52 C641.451,79.52 643.677,81.149 643.677,85.817 L643.677,89.888 L635.481,90.756 C630.216,91.353 627.665,93.741 627.665,98.138 C627.665,102.372 630.867,104.977 635.698,104.977 z M635.915,103.892 C631.627,103.892 629.076,101.612 629.076,98.03 C629.076,94.284 631.138,92.33 635.806,91.896 L643.677,90.973 L643.677,101.123 C642.157,102.535 639.552,103.892 635.915,103.892 z" fill="#000000"/>
    <path d="M653.718,104.597 L655.075,104.597 L655.075,82.506 C658.224,80.497 661.589,79.52 664.737,79.52 C669.297,79.52 671.359,81.04 671.359,85.328 L671.359,104.597 L672.716,104.597 L672.716,85.111 C672.716,80.226 670.002,78.326 665.226,78.326 C661.969,78.326 658.332,79.303 655.13,81.257 L655.021,81.257 L655.021,78.706 L653.718,78.706 z" fill="#000000"/>
    <path d="M690.194,104.869 C694.319,104.869 696.925,103.566 698.987,101.992 L699.096,101.992 L699.15,104.434 L700.399,104.434 L700.399,66.439 L698.987,66.439 L698.987,80.443 C697.25,79.249 694.862,78.218 691.225,78.218 C684.441,78.218 679.555,82.017 679.555,91.299 L679.555,91.733 C679.555,101.341 684.332,104.869 690.194,104.869 z M690.52,103.729 C684.929,103.729 681.021,100.418 681.021,91.787 L681.021,91.136 C681.021,82.669 685.201,79.412 691.28,79.412 C694.699,79.412 697.25,80.335 698.987,81.8 L698.987,100.689 C696.925,102.372 694.265,103.729 690.52,103.729 z" fill="#000000"/>
    <path d="M723.467,104.434 L724.824,104.434 L724.824,82.343 C727.973,80.389 731.338,79.412 734.486,79.412 C739.045,79.412 741.108,80.932 741.108,85.22 L741.108,104.434 L742.465,104.434 L742.465,84.948 C742.465,80.117 739.751,78.218 734.975,78.218 C731.718,78.218 728.081,79.195 724.879,81.149 L724.824,81.149 L724.824,66.439 L723.467,66.439 z" fill="#000000"/>
    <path d="M760.594,104.977 C766.945,104.977 771.884,100.526 771.884,91.787 L771.884,91.299 C771.884,82.56 767.216,78.326 760.594,78.326 C754.298,78.326 749.358,82.723 749.358,91.407 L749.358,92.005 C749.358,100.744 753.972,104.977 760.594,104.977 z M760.594,103.837 C754.786,103.837 750.661,100.146 750.661,92.113 L750.661,91.353 C750.661,83.537 754.841,79.466 760.594,79.466 C766.402,79.466 770.581,82.886 770.581,91.19 L770.581,91.896 C770.581,99.875 766.402,103.837 760.594,103.837 z" fill="#000000"/>
    <path d="M778.723,104.434 L780.135,104.434 L780.135,66.439 L778.723,66.439 z" fill="#000000"/>
    <path d="M797.558,104.869 C801.684,104.869 804.289,103.566 806.352,101.992 L806.46,101.992 L806.514,104.434 L807.763,104.434 L807.763,66.439 L806.352,66.439 L806.352,80.443 C804.615,79.249 802.226,78.218 798.59,78.218 C791.805,78.218 786.92,82.017 786.92,91.299 L786.92,91.733 C786.92,101.341 791.696,104.869 797.558,104.869 z M797.884,103.729 C792.293,103.729 788.385,100.418 788.385,91.787 L788.385,91.136 C788.385,82.669 792.565,79.412 798.644,79.412 C802.063,79.412 804.615,80.335 806.352,81.8 L806.352,100.689 C804.289,102.372 801.629,103.729 797.884,103.729 z" fill="#000000"/>
    <path d="M526,172.663 C527.682,172.663 529.148,172.175 529.908,171.903 L529.908,170.818 C528.877,171.144 527.52,171.415 526.271,171.415 C522.852,171.415 521.875,170.221 521.875,167.344 L521.875,147.749 L529.365,147.749 L529.365,146.501 L521.875,146.501 L521.875,140.367 L520.518,140.367 L520.518,146.501 L516.609,146.501 L516.609,147.749 L520.518,147.749 L520.518,167.561 C520.518,170.926 522.255,172.663 526,172.663 z" fill="#000000"/>
    <path d="M536.476,172.283 L537.833,172.283 L537.833,150.192 C540.981,148.238 544.346,147.261 547.494,147.261 C552.054,147.261 554.116,148.781 554.116,153.069 L554.116,172.283 L555.473,172.283 L555.473,152.797 C555.473,147.966 552.759,146.067 547.983,146.067 C544.726,146.067 541.089,147.044 537.887,148.998 L537.833,148.998 L537.833,134.288 L536.476,134.288 z" fill="#000000"/>
    <path d="M574.362,172.826 C578.108,172.826 580.876,171.958 582.45,171.035 L582.45,170.004 C580.713,170.764 577.999,171.632 574.525,171.632 C567.089,171.632 563.669,167.67 563.669,159.854 L563.669,158.931 L583.427,158.931 L583.427,158.279 C583.427,150.735 580.387,146.175 573.44,146.175 C567.252,146.175 562.312,150.355 562.312,159.256 L562.312,159.854 C562.312,168.375 566.329,172.826 574.362,172.826 z M573.385,147.315 C579.356,147.315 581.961,151.277 581.961,157.791 L563.724,157.791 C564.158,150.68 568.229,147.315 573.385,147.315 z" fill="#000000"/>
    <path d="M590.321,172.446 L591.678,172.446 L591.678,150.355 C594.826,148.346 598.191,147.369 601.339,147.369 C605.899,147.369 607.961,148.889 607.961,153.177 L607.961,172.446 L609.318,172.446 L609.318,152.96 C609.318,148.075 606.604,146.175 601.828,146.175 C598.571,146.175 594.934,147.152 591.732,149.106 L591.623,149.106 L591.623,146.555 L590.321,146.555 z" fill="#000000"/>
    <path d="M639.335,172.663 C641.017,172.663 642.483,172.175 643.243,171.903 L643.243,170.818 C642.211,171.144 640.854,171.415 639.606,171.415 C636.186,171.415 635.209,170.221 635.209,167.344 L635.209,147.749 L642.7,147.749 L642.7,146.501 L635.209,146.501 L635.209,140.367 L633.852,140.367 L633.852,146.501 L629.944,146.501 L629.944,147.749 L633.852,147.749 L633.852,167.561 C633.852,170.926 635.589,172.663 639.335,172.663 z" fill="#000000"/>
    <path d="M649.648,172.338 L651.005,172.338 L651.005,146.501 L649.648,146.501 z M649.594,140.53 L651.005,140.53 L651.005,138.522 L649.594,138.522 z" fill="#000000"/>
    <path d="M659.364,172.283 L660.775,172.283 L660.775,134.288 L659.364,134.288 z" fill="#000000"/>
    <path d="M676.462,172.663 C678.144,172.663 679.61,172.175 680.37,171.903 L680.37,170.818 C679.338,171.144 677.981,171.415 676.733,171.415 C673.313,171.415 672.336,170.221 672.336,167.344 L672.336,147.749 L679.827,147.749 L679.827,146.501 L672.336,146.501 L672.336,140.367 L670.979,140.367 L670.979,146.501 L667.071,146.501 L667.071,147.749 L670.979,147.749 L670.979,167.561 C670.979,170.926 672.716,172.663 676.462,172.663 z" fill="#000000"/>
    <path d="M701.973,180.751 C705.718,180.751 707.075,178.58 708.269,175.323 L719.939,146.664 L718.528,146.664 L709.734,168.213 L709.626,168.213 L700.073,146.664 L698.662,146.664 L708.975,170.004 L707.021,175.106 C705.935,177.874 704.849,179.557 701.81,179.557 C700.833,179.557 699.856,179.394 699.096,179.177 L699.096,180.208 C699.801,180.48 700.833,180.751 701.973,180.751 z" fill="#000000"/>
    <path d="M735.3,172.826 C741.651,172.826 746.59,168.375 746.59,159.636 L746.59,159.148 C746.59,150.409 741.922,146.175 735.3,146.175 C729.004,146.175 724.064,150.572 724.064,159.256 L724.064,159.854 C724.064,168.592 728.678,172.826 735.3,172.826 z M735.3,171.686 C729.492,171.686 725.367,167.995 725.367,159.962 L725.367,159.202 C725.367,151.386 729.546,147.315 735.3,147.315 C741.108,147.315 745.287,150.735 745.287,159.039 L745.287,159.745 C745.287,167.724 741.108,171.686 735.3,171.686 z" fill="#000000"/>
    <path d="M761.191,172.826 C764.177,172.826 767.759,171.849 770.962,169.895 L771.07,169.895 L771.124,172.446 L772.427,172.446 L772.427,146.555 L771.016,146.555 L771.016,168.647 C767.868,170.655 764.448,171.632 761.517,171.632 C757.066,171.632 754.841,170.167 754.841,165.824 L754.841,146.555 L753.484,146.555 L753.484,165.987 C753.484,170.872 756.36,172.826 761.191,172.826 z" fill="#000000"/>
    <path d="M781.112,172.446 L782.523,172.446 L782.523,151.169 C784.368,149.106 787.299,147.478 790.61,147.478 C791.099,147.478 791.696,147.586 792.13,147.695 L792.13,146.447 C791.805,146.338 791.208,146.284 790.665,146.284 C787.137,146.284 784.206,148.129 782.577,149.866 L782.469,149.866 L782.469,146.555 L781.112,146.555 z" fill="#000000"/>
    <path d="M498.643,248.654 L500.054,248.654 L500.054,238.775 C501.791,239.807 504.234,240.729 507.599,240.729 C514.818,240.729 519.432,236.713 519.432,227.757 L519.432,227.214 C519.432,217.064 515.035,214.133 509.119,214.133 C505.048,214.133 502.225,215.544 500.109,216.847 L500,216.847 L500,214.513 L498.643,214.513 z M507.545,239.644 C504.342,239.644 501.791,238.667 500.054,237.527 L500.054,217.986 C502.008,216.738 505.048,215.327 508.848,215.327 C514.384,215.327 518.021,217.932 518.021,227.214 L518.021,227.865 C518.021,236.007 513.95,239.644 507.545,239.644 z" fill="#000000"/>
    <path d="M526.488,240.132 L527.845,240.132 L527.845,218.041 C530.993,216.087 534.359,215.11 537.507,215.11 C542.066,215.11 544.129,216.629 544.129,220.918 L544.129,240.132 L545.486,240.132 L545.486,220.646 C545.486,215.815 542.772,213.915 537.995,213.915 C534.739,213.915 531.102,214.893 527.899,216.847 L527.845,216.847 L527.845,202.137 L526.488,202.137 z" fill="#000000"/>
    <path d="M563.615,240.675 C569.966,240.675 574.905,236.224 574.905,227.485 L574.905,226.997 C574.905,218.258 570.237,214.024 563.615,214.024 C557.319,214.024 552.379,218.421 552.379,227.105 L552.379,227.702 C552.379,236.441 556.993,240.675 563.615,240.675 z M563.615,239.535 C557.807,239.535 553.682,235.844 553.682,227.811 L553.682,227.051 C553.682,219.235 557.862,215.164 563.615,215.164 C569.423,215.164 573.603,218.584 573.603,226.888 L573.603,227.594 C573.603,235.573 569.423,239.535 563.615,239.535 z" fill="#000000"/>
    <path d="M581.961,240.295 L583.318,240.295 L583.318,218.204 C586.467,216.195 589.832,215.218 592.98,215.218 C597.54,215.218 599.602,216.738 599.602,221.026 L599.602,240.295 L600.959,240.295 L600.959,220.809 C600.959,215.924 598.245,214.024 593.469,214.024 C590.212,214.024 586.575,215.001 583.373,216.955 L583.264,216.955 L583.264,214.404 L581.961,214.404 z" fill="#000000"/>
    <path d="M619.848,240.675 C623.594,240.675 626.362,239.807 627.936,238.884 L627.936,237.853 C626.199,238.613 623.485,239.481 620.011,239.481 C612.575,239.481 609.155,235.519 609.155,227.702 L609.155,226.78 L628.913,226.78 L628.913,226.128 C628.913,218.584 625.873,214.024 618.926,214.024 C612.738,214.024 607.798,218.204 607.798,227.105 L607.798,227.702 C607.798,236.224 611.815,240.675 619.848,240.675 z M618.871,215.164 C624.842,215.164 627.447,219.126 627.447,225.64 L609.21,225.64 C609.644,218.529 613.715,215.164 618.871,215.164 z" fill="#000000"/>
    <path d="M652.09,240.132 L653.447,240.132 L653.447,215.49 L660.069,215.49 L660.069,214.295 L653.447,214.295 L653.447,210.007 C653.447,205.014 656.053,203.114 659.906,203.114 C661.643,203.114 663,203.385 663.977,203.765 L663.977,202.68 C663,202.3 661.643,201.974 659.744,201.974 C655.184,201.974 652.09,204.417 652.09,209.953 L652.09,214.295 L647.802,214.295 L647.802,215.49 L652.09,215.49 z" fill="#000000"/>
    <path d="M675.973,240.675 C682.324,240.675 687.263,236.224 687.263,227.485 L687.263,226.997 C687.263,218.258 682.595,214.024 675.973,214.024 C669.677,214.024 664.737,218.421 664.737,227.105 L664.737,227.702 C664.737,236.441 669.351,240.675 675.973,240.675 z M675.973,239.535 C670.165,239.535 666.04,235.844 666.04,227.811 L666.04,227.051 C666.04,219.235 670.219,215.164 675.973,215.164 C681.781,215.164 685.96,218.584 685.96,226.888 L685.96,227.594 C685.96,235.573 681.781,239.535 675.973,239.535 z" fill="#000000"/>
    <path d="M694.211,240.295 L695.622,240.295 L695.622,219.018 C697.468,216.955 700.399,215.327 703.71,215.327 C704.198,215.327 704.795,215.435 705.229,215.544 L705.229,214.295 C704.904,214.187 704.307,214.133 703.764,214.133 C700.236,214.133 697.305,215.978 695.676,217.715 L695.568,217.715 L695.568,214.404 L694.211,214.404 z" fill="#000000"/>
    <path d="M717.171,240.295 L718.691,240.295 L726.236,216.575 L726.29,216.575 L733.726,240.295 L735.137,240.295 L742.953,214.404 L741.651,214.404 L734.486,238.395 L734.432,238.395 L726.941,214.404 L725.584,214.404 L717.985,238.395 L717.931,238.395 L710.82,214.404 L709.409,214.404 z" fill="#000000"/>
    <path d="M755.6,240.675 C759.671,240.675 762.385,239.101 763.579,237.961 L763.634,237.961 L763.742,240.295 L765.045,240.295 L765.045,221.243 C765.045,216.087 762.114,214.024 757.12,214.024 C754.461,214.024 752.072,214.458 749.901,215.327 L749.901,216.412 C751.909,215.761 754.189,215.218 756.686,215.218 C761.354,215.218 763.579,216.847 763.579,221.515 L763.579,225.586 L755.383,226.454 C750.118,227.051 747.567,229.439 747.567,233.836 C747.567,238.07 750.77,240.675 755.6,240.675 z M755.818,239.59 C751.53,239.59 748.978,237.31 748.978,233.727 C748.978,229.982 751.041,228.028 755.709,227.594 L763.579,226.671 L763.579,236.821 C762.06,238.233 759.454,239.59 755.818,239.59 z" fill="#000000"/>
    <path d="M773.513,240.295 L774.924,240.295 L774.924,219.018 C776.769,216.955 779.7,215.327 783.011,215.327 C783.5,215.327 784.097,215.435 784.531,215.544 L784.531,214.295 C784.206,214.187 783.608,214.133 783.066,214.133 C779.538,214.133 776.607,215.978 774.978,217.715 L774.87,217.715 L774.87,214.404 L773.513,214.404 z" fill="#000000"/>
    <path d="M799.784,240.567 C803.909,240.567 806.514,239.264 808.577,237.69 L808.685,237.69 L808.74,240.132 L809.988,240.132 L809.988,202.137 L808.577,202.137 L808.577,216.141 C806.84,214.947 804.452,213.915 800.815,213.915 C794.03,213.915 789.145,217.715 789.145,226.997 L789.145,227.431 C789.145,237.038 793.922,240.567 799.784,240.567 z M800.109,239.427 C794.519,239.427 790.611,236.116 790.611,227.485 L790.611,226.834 C790.611,218.366 794.79,215.11 800.869,215.11 C804.289,215.11 806.84,216.032 808.577,217.498 L808.577,236.387 C806.514,238.07 803.855,239.427 800.109,239.427 z" fill="#000000"/>
    <path d="M521.332,308.361 C523.014,308.361 524.48,307.873 525.24,307.601 L525.24,306.516 C524.209,306.841 522.852,307.113 521.603,307.113 C518.184,307.113 517.207,305.919 517.207,303.042 L517.207,283.447 L524.697,283.447 L524.697,282.199 L517.207,282.199 L517.207,276.065 L515.85,276.065 L515.85,282.199 L511.941,282.199 L511.941,283.447 L515.85,283.447 L515.85,303.259 C515.85,306.624 517.587,308.361 521.332,308.361 z" fill="#000000"/>
    <path d="M541.307,308.524 C547.657,308.524 552.597,304.073 552.597,295.334 L552.597,294.846 C552.597,286.107 547.929,281.873 541.307,281.873 C535.01,281.873 530.071,286.27 530.071,294.954 L530.071,295.551 C530.071,304.29 534.684,308.524 541.307,308.524 z M541.307,307.384 C535.499,307.384 531.373,303.693 531.373,295.66 L531.373,294.9 C531.373,287.084 535.553,283.013 541.307,283.013 C547.114,283.013 551.294,286.432 551.294,294.737 L551.294,295.443 C551.294,303.422 547.114,307.384 541.307,307.384 z" fill="#000000"/>
    <path d="M580.008,308.524 C584.078,308.524 586.792,306.95 587.987,305.81 L588.041,305.81 L588.149,308.144 L589.452,308.144 L589.452,289.092 C589.452,283.936 586.521,281.873 581.527,281.873 C578.868,281.873 576.479,282.307 574.308,283.176 L574.308,284.261 C576.317,283.61 578.596,283.067 581.093,283.067 C585.761,283.067 587.987,284.695 587.987,289.364 L587.987,293.434 L579.79,294.303 C574.525,294.9 571.974,297.288 571.974,301.685 C571.974,305.919 575.177,308.524 580.008,308.524 z M580.225,307.438 C575.937,307.438 573.385,305.159 573.385,301.576 C573.385,297.831 575.448,295.877 580.116,295.443 L587.987,294.52 L587.987,304.67 C586.467,306.081 583.861,307.438 580.225,307.438 z" fill="#000000"/>
    <path d="M607.473,308.524 C611.489,308.524 613.498,307.547 615.126,306.461 L615.126,305.213 C613.606,306.19 611.435,307.33 607.635,307.33 C600.579,307.33 597.539,302.716 597.539,295.443 L597.539,294.737 C597.539,286.432 601.936,283.067 607.418,283.067 C610.784,283.067 612.683,283.664 614.8,284.75 L614.8,283.61 C612.901,282.416 610.784,281.873 607.527,281.873 C601.122,281.873 596.237,285.835 596.237,294.9 L596.237,295.497 C596.237,303.368 599.819,308.524 607.473,308.524 z" fill="#000000"/>
    <path d="M631.464,308.524 C635.481,308.524 637.489,307.547 639.117,306.461 L639.117,305.213 C637.598,306.19 635.426,307.33 631.627,307.33 C624.571,307.33 621.531,302.716 621.531,295.443 L621.531,294.737 C621.531,286.432 625.928,283.067 631.41,283.067 C634.775,283.067 636.675,283.664 638.792,284.75 L638.792,283.61 C636.892,282.416 634.775,281.873 631.518,281.873 C625.113,281.873 620.228,285.835 620.228,294.9 L620.228,295.497 C620.228,303.368 623.811,308.524 631.464,308.524 z" fill="#000000"/>
    <path d="M656.27,308.524 C660.015,308.524 662.783,307.656 664.357,306.733 L664.357,305.702 C662.62,306.461 659.906,307.33 656.432,307.33 C648.996,307.33 645.577,303.368 645.577,295.551 L645.577,294.629 L665.334,294.629 L665.334,293.977 C665.334,286.432 662.295,281.873 655.347,281.873 C649.159,281.873 644.22,286.052 644.22,294.954 L644.22,295.551 C644.22,304.073 648.236,308.524 656.27,308.524 z M655.293,283.013 C661.263,283.013 663.869,286.975 663.869,293.489 L645.631,293.489 C646.065,286.378 650.136,283.013 655.293,283.013 z" fill="#000000"/>
    <path d="M672.011,307.981 L673.422,307.981 L673.422,269.986 L672.011,269.986 z" fill="#000000"/>
    <path d="M681.781,307.981 L683.192,307.981 L683.192,269.986 L681.781,269.986 z" fill="#000000"/>
    <path d="M702.027,308.524 C705.772,308.524 708.54,307.656 710.114,306.733 L710.114,305.702 C708.378,306.461 705.664,307.33 702.19,307.33 C694.753,307.33 691.334,303.368 691.334,295.551 L691.334,294.629 L711.091,294.629 L711.091,293.977 C711.091,286.432 708.052,281.873 701.104,281.873 C694.916,281.873 689.977,286.052 689.977,294.954 L689.977,295.551 C689.977,304.073 693.994,308.524 702.027,308.524 z M701.05,283.013 C707.021,283.013 709.626,286.975 709.626,293.489 L691.388,293.489 C691.822,286.378 695.893,283.013 701.05,283.013 z" fill="#000000"/>
    <path d="M717.876,308.144 L719.288,308.144 L719.288,286.867 C721.133,284.804 724.064,283.176 727.375,283.176 C727.864,283.176 728.461,283.284 728.895,283.393 L728.895,282.144 C728.569,282.036 727.972,281.982 727.43,281.982 C723.901,281.982 720.97,283.827 719.342,285.564 L719.233,285.564 L719.233,282.253 L717.876,282.253 z" fill="#000000"/>
    <path d="M741.38,308.524 C745.45,308.524 748.164,306.95 749.359,305.81 L749.413,305.81 L749.521,308.144 L750.824,308.144 L750.824,289.092 C750.824,283.936 747.893,281.873 742.899,281.873 C740.24,281.873 737.851,282.307 735.68,283.176 L735.68,284.261 C737.689,283.61 739.968,283.067 742.465,283.067 C747.133,283.067 749.359,284.695 749.359,289.364 L749.359,293.434 L741.162,294.303 C735.897,294.9 733.346,297.288 733.346,301.685 C733.346,305.919 736.549,308.524 741.38,308.524 z M741.597,307.438 C737.309,307.438 734.757,305.159 734.757,301.576 C734.757,297.831 736.82,295.877 741.488,295.443 L749.359,294.52 L749.359,304.67 C747.839,306.081 745.233,307.438 741.597,307.438 z" fill="#000000"/>
    <path d="M766.511,308.361 C768.193,308.361 769.659,307.873 770.419,307.601 L770.419,306.516 C769.387,306.841 768.03,307.113 766.782,307.113 C763.362,307.113 762.385,305.919 762.385,303.042 L762.385,283.447 L769.876,283.447 L769.876,282.199 L762.385,282.199 L762.385,276.065 L761.028,276.065 L761.028,282.199 L757.12,282.199 L757.12,283.447 L761.028,283.447 L761.028,303.259 C761.028,306.624 762.765,308.361 766.511,308.361 z" fill="#000000"/>
    <path d="M787.245,308.524 C790.99,308.524 793.759,307.656 795.333,306.733 L795.333,305.702 C793.596,306.461 790.882,307.33 787.408,307.33 C779.972,307.33 776.552,303.368 776.552,295.551 L776.552,294.629 L796.31,294.629 L796.31,293.977 C796.31,286.432 793.27,281.873 786.322,281.873 C780.135,281.873 775.195,286.052 775.195,294.954 L775.195,295.551 C775.195,304.073 779.212,308.524 787.245,308.524 z M786.268,283.013 C792.239,283.013 794.844,286.975 794.844,293.489 L776.606,293.489 C777.041,286.378 781.112,283.013 786.268,283.013 z" fill="#000000"/>
    <g>
      <path d="M556.551,437.846 L709.021,355.301 C714.513,352.324 721.379,354.369 724.351,359.86 L760.546,426.714 C763.518,432.205 761.478,439.067 755.986,442.039 L603.512,524.588 C598.021,527.565 591.159,525.52 588.187,520.029 L551.992,453.175 C549.016,447.684 551.06,440.822 556.551,437.846 z" fill="#000000"/>
      <path d="M557.051,438.346 L709.521,355.801 C715.013,352.824 721.879,354.869 724.851,360.36 L761.046,427.214 C764.018,432.705 761.978,439.567 756.486,442.539 L604.012,525.088 C598.521,528.065 591.659,526.02 588.687,520.529 L552.492,453.675 C549.516,448.184 551.56,441.322 557.051,438.346 z" fill-opacity="0" stroke="#000000" stroke-width="1"/>
    </g>
    <g>
      <path d="M563.52,441.219 L689.393,373.071 C693.79,370.692 699.385,372.515 701.891,377.142 L734.328,437.057 C736.833,441.684 735.3,447.366 730.904,449.745 L605.03,517.892 C600.634,520.272 595.038,518.449 592.532,513.821 L560.096,453.911 C557.59,449.284 559.124,443.602 563.52,441.219 z" fill="#FFFFFF"/>
      <path d="M564.02,441.719 L689.893,373.571 C694.29,371.192 699.885,373.015 702.391,377.642 L734.828,437.557 C737.333,442.184 735.8,447.866 731.404,450.245 L605.53,518.392 C601.134,520.772 595.538,518.949 593.032,514.321 L560.596,454.411 C558.09,449.784 559.624,444.102 564.02,441.719 z" fill-opacity="0" stroke="#000000" stroke-width="1"/>
    </g>
    <g>
      <path d="M735.508,414.355 C730.388,417.127 723.987,415.223 721.214,410.098 C718.442,404.978 720.346,398.578 725.466,395.805 C730.591,393.032 736.987,394.936 739.76,400.057 C742.533,405.182 740.633,411.582 735.508,414.355 z" fill="#FFFFFF"/>
      <path d="M736.008,414.855 C730.888,417.627 724.487,415.723 721.714,410.598 C718.942,405.478 720.846,399.078 725.966,396.305 C731.091,393.532 737.487,395.436 740.26,400.557 C743.033,405.682 741.133,412.082 736.008,414.855 z" fill-opacity="0" stroke="#000000" stroke-width="1"/>
    </g>
    <g>
      <path d="M687.079,420.601 C687.428,421.121 687.179,421.808 686.528,422.148 C685.876,422.482 685.076,422.338 684.727,421.817 C684.384,421.293 684.628,420.605 685.279,420.266 C685.935,419.927 686.731,420.076 687.079,420.601" fill="#000000"/>
      <path d="M692.109,428.218 C692.458,428.738 692.204,429.43 691.548,429.769 C690.897,430.104 690.092,429.959 689.744,429.439 C689.4,428.919 689.649,428.227 690.3,427.888 C690.956,427.548 691.761,427.689 692.109,428.218" fill="#000000"/>
      <path d="M682.344,420.555 C682.344,420.555 681.941,420.022 681.231,420.388 L681.163,420.424 C680.466,420.786 680.787,421.361 680.787,421.361 L688.283,432.642 C688.283,432.642 688.717,433.162 689.4,432.809 L689.463,432.777 C690.146,432.424 689.843,431.836 689.843,431.836 L682.344,420.555 z" fill="#000000"/>
      <path d="M656.837,444.289 C657.755,445.669 657.099,447.514 655.376,448.405 C653.652,449.296 651.517,448.898 650.599,447.519 C649.685,446.139 650.332,444.298 652.051,443.407 C653.779,442.511 655.923,442.909 656.837,444.289" fill="#000000"/>
      <path d="M675.133,416.598 C675.332,416.335 675.599,416.105 675.939,415.933 C677.042,415.363 678.408,415.616 678.996,416.503 C679.417,417.136 679.317,417.923 678.829,418.52 L670.732,430.036 L666.404,429.24 L675.133,416.598 z" fill="#000000"/>
      <path d="M682.461,428.688 C682.954,428.087 683.049,427.304 682.628,426.671 C682.045,425.793 680.674,425.536 679.575,426.106 C679.236,426.282 678.969,426.513 678.77,426.77 L675.133,431.846 L666.299,430.19 C662.889,429.57 661.319,432.09 661.319,432.09 L657.475,437.427 L653.087,430.814 C652.599,430.081 651.477,429.882 650.572,430.348 C649.677,430.814 649.328,431.773 649.812,432.506 L663.115,452.521 C663.595,453.241 664.716,453.44 665.621,452.974 C666.526,452.508 666.865,451.549 666.385,450.825 L661.31,443.194 L666.865,435.419 L673.917,436.762 C676.337,437.255 677.526,435.505 677.526,435.505 L682.461,428.688 z" fill="#000000"/>
    </g>
    <path d="M538.945,447.556 C537.751,442.625 538.099,437.455 540.284,432.751 C542.451,428.074 546.124,424.514 550.624,422.207 L547.037,417.096 C541.519,419.896 537.036,424.288 534.381,430.01 C531.704,435.777 531.256,442.078 532.708,448.126 L538.945,447.556 z" fill="#000000"/>
    <path d="M588.945,535.501 C591.135,538.383 594.07,540.355 597.467,540.925 C600.846,541.49 604.216,540.599 607.233,538.631 L608.585,543.155 C604.899,545.584 600.76,546.651 596.621,545.959 C592.456,545.258 588.878,542.874 586.182,539.351 L588.945,535.501 z" fill="#000000"/>
    <g>
      <path d="M627.664,464.364 C627.664,464.364 644.22,496.64 644.22,496.64 L605.03,517.892 C600.633,520.272 595.038,518.449 592.532,513.821 L580.387,491.17 z" fill="#D8D7D7"/>
    </g>
    <g>
      <path d="M644.962,413.693 C642.087,415.783 639.883,418.835 638.891,422.536 C636.592,431.119 641.685,439.94 650.267,442.24 C658.85,444.54 667.672,439.446 669.971,430.864 C670.963,427.163 670.58,423.418 669.136,420.17 L666.51,429.969 C664.724,436.634 657.868,440.575 651.193,438.787 C644.531,437.002 640.552,430.15 642.337,423.491 L644.962,413.693 L644.962,413.693 L644.962,413.693 z" fill="#000000"/>
      <path d="M619.163,358.029 L619.163,358.029 L613.624,378.7 C612.347,383.468 615.143,388.361 619.944,389.647 C621.888,390.168 623.852,390.012 625.584,389.319 L625.572,389.366 C624.295,394.129 627.093,399.017 631.894,400.304 C634.084,400.891 636.305,400.605 638.188,399.666 C638.52,403.273 641.044,406.457 644.782,407.459 C646.726,407.979 648.691,407.82 650.423,407.126 L645.806,424.358 C644.524,429.142 647.317,434.047 652.118,435.333 C656.886,436.611 661.784,433.795 663.073,428.984 L671.269,398.393 L671.269,398.393 C676.329,406.517 682.775,413.292 689,409.699 C697.702,404.675 686.897,387.347 681.129,363.795 C677.133,347.478 667.132,339.422 656.382,336.541 C640.17,332.197 623.507,341.818 619.163,358.029 z" fill="#000000"/>
      <path d="M655.461,339.996 L655.461,339.996 C668.44,343.475 674.244,352.62 677.587,364.493 C685.005,390.844 691.893,403.838 687.127,406.607 C682.259,409.435 675.14,398.569 670.068,389.065 L659.616,428.07 C658.841,430.964 655.904,432.647 653.043,431.88 C650.163,431.108 648.487,428.165 649.256,425.294 L658.967,389.052 L655.514,388.127 L652.281,400.191 C651.509,403.074 648.568,404.772 645.707,404.005 C642.827,403.233 641.151,400.288 641.921,397.415 L644.229,388.804 L640.775,387.879 L639.393,393.036 C638.621,395.92 635.68,397.617 632.819,396.851 C629.938,396.079 628.263,393.134 629.033,390.26 L631.341,381.649 L627.887,380.724 L627.426,382.445 C626.658,385.313 623.717,387.009 620.857,386.243 C617.976,385.471 616.299,382.533 617.066,379.669 L619.146,371.908 L622.616,358.955 C624.757,350.966 622.616,358.955 622.616,358.955 C626.239,345.436 641.154,336.162 655.461,339.996 z" fill="#FFFFFF"/>
    </g>
    <g>
      <path d="M627.167,-66.167 L628.5,-66.167 L628.5,-66.167 L627.167,-66.167 L627.167,-66.167 z" fill="#000000"/>
      <path d="M627.167,-66.167 L628.5,-66.167 L628.5,-66.167 L627.167,-66.167 L627.167,-66.167 z" fill-opacity="0" stroke="#000000" stroke-width="1"/>
    </g>
    <g>
      <path d="M34.739,132.644 L321.663,132.644 L321.663,200.115 L34.739,200.115 L34.739,132.644 z" fill="#000000"/>
      <g>
        <path d="M178.378,364.236 C184.376,364.236 189.297,359.331 189.297,353.28 C189.297,347.167 184.376,342.251 178.378,342.251 C172.359,342.251 167.459,347.172 167.459,353.28 C167.464,359.331 172.364,364.236 178.378,364.236" fill="#000000"/>
        <path d="M195.825,367.786 L160.757,367.786 C153.011,367.786 146.792,374.168 146.792,382.067 L146.792,408.405 C146.792,414.96 155.4,414.96 155.4,408.405 L155.4,382.986 L164.329,382.986 L164.329,415.044 C168.888,416.131 173.562,416.961 178.493,416.961 C183.367,416.961 187.994,416.136 192.553,415.07 L192.553,382.986 L201.413,382.986 L201.413,408.405 C201.413,415.002 210.006,415.002 210.006,408.405 L210.006,382.224 C209.995,374.992 204.354,367.786 195.825,367.786" fill="#000000"/>
        <path d="M219.743,425.301 C207.989,433.405 193.666,438.179 178.32,438.179 C163.068,438.179 148.925,433.479 137.123,425.511 L127.869,439.366 C142.26,449.182 159.639,454.865 178.32,454.865 C197.138,454.865 214.612,449.114 229.039,439.203 L219.743,425.301 z" fill="#000000"/>
        <path d="M237.421,453.835 C220.604,465.374 200.268,472.065 178.399,472.065 C156.64,472.065 136.404,465.442 119.608,454.03 L110.259,467.585 C129.671,480.857 153.142,488.614 178.399,488.614 C203.703,488.614 227.169,480.815 246.675,467.543 L237.421,453.835 z" fill="#000000"/>
        <path d="M254.979,482.139 C233.136,497.065 206.77,505.799 178.357,505.799 C149.996,505.799 123.647,497.086 101.825,482.207 L92.707,495.957 C117.103,512.621 146.614,522.332 178.362,522.332 C210.179,522.332 239.753,512.532 264.238,495.778 L254.979,482.139 z" fill="#000000"/>
      </g>
      <path d="M58.853,107.102 C64.777,107.102 67.865,105.464 69.945,104.329 L69.945,102.817 C67.487,104.203 64.525,105.653 58.979,105.653 C48.264,105.653 43.475,98.972 43.475,86.304 L43.475,85.233 C43.475,72.502 49.399,66.137 59.672,66.137 C64.21,66.137 67.172,67.082 69.693,68.406 L69.693,66.956 C67.361,65.633 64.525,64.687 59.672,64.687 C48.391,64.687 41.836,71.809 41.836,85.422 L41.836,86.241 C41.836,99.729 47.382,107.102 58.853,107.102 z" fill="#000000"/>
      <path d="M90.176,107.165 C97.549,107.165 103.285,101.998 103.285,91.851 L103.285,91.283 C103.285,81.136 97.865,76.221 90.176,76.221 C82.865,76.221 77.13,81.326 77.13,91.409 L77.13,92.103 C77.13,102.25 82.487,107.165 90.176,107.165 z M90.176,105.842 C83.432,105.842 78.642,101.556 78.642,92.229 L78.642,91.346 C78.642,82.271 83.495,77.544 90.176,77.544 C96.919,77.544 101.772,81.515 101.772,91.157 L101.772,91.977 C101.772,101.241 96.919,105.842 90.176,105.842 z" fill="#000000"/>
      <path d="M111.478,106.724 L113.053,106.724 L113.053,81.073 C116.709,78.742 120.616,77.607 124.272,77.607 C129.566,77.607 131.961,79.372 131.961,84.351 L131.961,106.724 L133.536,106.724 L133.536,84.099 C133.536,78.426 130.385,76.221 124.839,76.221 C121.057,76.221 116.835,77.355 113.116,79.624 L112.99,79.624 L112.99,76.662 L111.478,76.662 z" fill="#000000"/>
      <path d="M143.557,106.724 L145.133,106.724 L145.133,81.073 C148.788,78.742 152.695,77.607 156.351,77.607 C161.645,77.607 164.04,79.372 164.04,84.351 L164.04,106.724 L165.615,106.724 L165.615,84.099 C165.615,78.426 162.464,76.221 156.918,76.221 C153.137,76.221 148.914,77.355 145.196,79.624 L145.07,79.624 L145.07,76.662 L143.557,76.662 z" fill="#000000"/>
      <path d="M187.548,107.165 C191.897,107.165 195.111,106.157 196.939,105.086 L196.939,103.888 C194.922,104.771 191.771,105.779 187.737,105.779 C179.103,105.779 175.132,101.178 175.132,92.103 L175.132,91.031 L198.073,91.031 L198.073,90.275 C198.073,81.515 194.544,76.221 186.477,76.221 C179.292,76.221 173.557,81.073 173.557,91.409 L173.557,92.103 C173.557,101.998 178.22,107.165 187.548,107.165 z M186.413,77.544 C193.346,77.544 196.371,82.145 196.371,89.708 L175.195,89.708 C175.699,81.452 180.426,77.544 186.413,77.544 z" fill="#000000"/>
      <path d="M217.043,107.165 C221.707,107.165 224.039,106.031 225.93,104.771 L225.93,103.321 C224.165,104.455 221.644,105.779 217.232,105.779 C209.039,105.779 205.51,100.422 205.51,91.977 L205.51,91.157 C205.51,81.515 210.615,77.607 216.98,77.607 C220.888,77.607 223.094,78.3 225.552,79.561 L225.552,78.237 C223.346,76.851 220.888,76.221 217.106,76.221 C209.669,76.221 203.997,80.821 203.997,91.346 L203.997,92.04 C203.997,101.178 208.157,107.165 217.043,107.165 z" fill="#000000"/>
      <path d="M242.19,106.976 C244.144,106.976 245.845,106.409 246.728,106.094 L246.728,104.834 C245.53,105.212 243.955,105.527 242.505,105.527 C238.535,105.527 237.4,104.14 237.4,100.8 L237.4,78.048 L246.098,78.048 L246.098,76.599 L237.4,76.599 L237.4,69.477 L235.825,69.477 L235.825,76.599 L231.287,76.599 L231.287,78.048 L235.825,78.048 L235.825,101.052 C235.825,104.96 237.841,106.976 242.19,106.976 z" fill="#000000"/>
      <path d="M279.185,106.976 C281.139,106.976 282.841,106.409 283.723,106.094 L283.723,104.834 C282.525,105.212 280.95,105.527 279.5,105.527 C275.53,105.527 274.395,104.14 274.395,100.8 L274.395,78.048 L283.093,78.048 L283.093,76.599 L274.395,76.599 L274.395,69.477 L272.82,69.477 L272.82,76.599 L268.282,76.599 L268.282,78.048 L272.82,78.048 L272.82,101.052 C272.82,104.96 274.836,106.976 279.185,106.976 z" fill="#000000"/>
      <path d="M302.378,107.165 C309.752,107.165 315.487,101.998 315.487,91.851 L315.487,91.283 C315.487,81.136 310.067,76.221 302.378,76.221 C295.067,76.221 289.332,81.326 289.332,91.409 L289.332,92.103 C289.332,102.25 294.689,107.165 302.378,107.165 z M302.378,105.842 C295.635,105.842 290.845,101.556 290.845,92.229 L290.845,91.346 C290.845,82.271 295.698,77.544 302.378,77.544 C309.122,77.544 313.975,81.515 313.975,91.157 L313.975,91.977 C313.975,101.241 309.122,105.842 302.378,105.842 z" fill="#000000"/>
      <path d="M62.13,185.883 C72.781,185.883 79.651,178.446 79.651,165.022 L79.651,164.202 C79.651,150.715 72.781,143.467 62.193,143.467 C51.479,143.467 44.609,150.778 44.609,164.202 L44.609,165.022 C44.609,178.572 51.479,185.883 62.13,185.883 z M62.193,184.433 C52.298,184.433 46.311,177.627 46.311,165.085 L46.311,164.013 C46.311,151.598 52.487,144.917 62.13,144.917 C72.025,144.917 78.012,151.598 78.012,164.202 L78.012,165.211 C78.012,177.69 72.025,184.433 62.193,184.433 z" fill="#FFFFFF"/>
      <path d="M88.222,195.21 L89.86,195.21 L89.86,183.74 C91.877,184.937 94.713,186.009 98.621,186.009 C107.003,186.009 112.36,181.345 112.36,170.946 L112.36,170.316 C112.36,158.53 107.255,155.127 100.386,155.127 C95.659,155.127 92.381,156.765 89.923,158.278 L89.797,158.278 L89.797,155.568 L88.222,155.568 z M98.558,184.748 C94.839,184.748 91.877,183.614 89.86,182.29 L89.86,159.602 C92.129,158.152 95.659,156.513 100.07,156.513 C106.499,156.513 110.721,159.539 110.721,170.316 L110.721,171.072 C110.721,180.526 105.995,184.748 98.558,184.748 z" fill="#FFFFFF"/>
      <path d="M132.465,185.946 C136.814,185.946 140.028,184.937 141.855,183.866 L141.855,182.668 C139.839,183.551 136.687,184.559 132.654,184.559 C124.02,184.559 120.049,179.958 120.049,170.883 L120.049,169.812 L142.99,169.812 L142.99,169.055 C142.99,160.295 139.461,155.001 131.393,155.001 C124.209,155.001 118.473,159.854 118.473,170.19 L118.473,170.883 C118.473,180.778 123.137,185.946 132.465,185.946 z M131.33,156.324 C138.263,156.324 141.288,160.925 141.288,168.488 L120.112,168.488 C120.616,160.232 125.343,156.324 131.33,156.324 z" fill="#FFFFFF"/>
      <path d="M150.994,185.505 L152.57,185.505 L152.57,159.854 C156.225,157.522 160.132,156.387 163.788,156.387 C169.082,156.387 171.477,158.152 171.477,163.131 L171.477,185.505 L173.052,185.505 L173.052,162.879 C173.052,157.207 169.901,155.001 164.355,155.001 C160.574,155.001 156.351,156.135 152.633,158.404 L152.507,158.404 L152.507,155.442 L150.994,155.442 z" fill="#FFFFFF"/>
      <path d="M192.527,185.883 C201.791,185.883 205.762,181.597 205.762,174.853 C205.762,168.047 201.539,165.715 195.174,163.509 L192.59,162.753 C185.72,160.295 183.388,158.215 183.388,152.984 C183.388,148.32 186.666,144.917 193.598,144.917 C198.073,144.917 201.539,145.988 203.619,147.249 L203.619,145.736 C201.476,144.539 198.199,143.467 193.661,143.467 C185.657,143.467 181.75,147.69 181.75,153.11 C181.75,159.034 184.775,161.744 192.023,164.202 L194.67,165.085 C200.342,166.912 204.06,169.055 204.06,174.98 C204.06,180.904 200.594,184.433 192.464,184.433 C188.052,184.433 183.83,183.236 180.867,181.534 L180.867,182.984 C183.388,184.496 187.674,185.883 192.527,185.883 z" fill="#FFFFFF"/>
      <path d="M215.026,185.315 L216.665,185.315 L216.665,141.199 L215.026,141.199 z M232.799,185.315 L234.879,185.315 L219.249,169.685 L233.997,155.316 L232.043,155.316 L217.421,169.748 z" fill="#FFFFFF"/>
      <path d="M249.123,185.946 C253.849,185.946 257.001,184.118 258.387,182.795 L258.45,182.795 L258.576,185.505 L260.089,185.505 L260.089,163.383 C260.089,157.396 256.686,155.001 250.887,155.001 C247.799,155.001 245.026,155.505 242.505,156.513 L242.505,157.774 C244.837,157.018 247.484,156.387 250.383,156.387 C255.803,156.387 258.387,158.278 258.387,163.698 L258.387,168.425 L248.871,169.433 C242.757,170.127 239.795,172.9 239.795,178.005 C239.795,182.921 243.514,185.946 249.123,185.946 z M249.375,184.685 C244.396,184.685 241.434,182.038 241.434,177.879 C241.434,173.53 243.829,171.261 249.249,170.757 L258.387,169.685 L258.387,181.471 C256.623,183.11 253.597,184.685 249.375,184.685 z" fill="#FFFFFF"/>
      <path d="M278.303,185.757 C280.257,185.757 281.958,185.189 282.841,184.874 L282.841,183.614 C281.643,183.992 280.067,184.307 278.618,184.307 C274.647,184.307 273.513,182.921 273.513,179.58 L273.513,156.829 L282.21,156.829 L282.21,155.379 L273.513,155.379 L273.513,148.257 L271.937,148.257 L271.937,155.379 L267.4,155.379 L267.4,156.829 L271.937,156.829 L271.937,179.832 C271.937,183.74 273.954,185.757 278.303,185.757 z" fill="#FFFFFF"/>
      <path d="M302.378,185.946 C306.727,185.946 309.941,184.937 311.769,183.866 L311.769,182.668 C309.752,183.551 306.601,184.559 302.567,184.559 C293.933,184.559 289.962,179.958 289.962,170.883 L289.962,169.812 L312.903,169.812 L312.903,169.055 C312.903,160.295 309.374,155.001 301.307,155.001 C294.122,155.001 288.387,159.854 288.387,170.19 L288.387,170.883 C288.387,180.778 293.05,185.946 302.378,185.946 z M301.244,156.324 C308.176,156.324 311.201,160.925 311.201,168.488 L290.025,168.488 C290.529,160.232 295.256,156.324 301.244,156.324 z" fill="#FFFFFF"/>
      <path d="M26.332,264.159 L28.16,264.159 L39.378,225.714 L39.441,225.714 L50.596,264.159 L52.361,264.159 L63.075,222.689 L61.373,222.689 L51.479,261.638 L51.416,261.638 L40.26,222.689 L38.685,222.689 L27.277,261.638 L27.214,261.638 L17.382,222.689 L15.681,222.689 z" fill="#000000"/>
      <path d="M70.386,264.159 L71.962,264.159 L71.962,234.159 L70.386,234.159 z M70.323,227.227 L71.962,227.227 L71.962,224.895 L70.323,224.895 z" fill="#000000"/>
      <path d="M82.487,264.159 L84.125,264.159 L84.125,243.676 L101.016,243.676 L101.016,242.1 L84.125,242.1 L84.125,224.201 L105.932,224.201 L105.932,222.689 L82.487,222.689 z" fill="#000000"/>
      <path d="M113.872,264.159 L115.448,264.159 L115.448,234.159 L113.872,234.159 z M113.809,227.227 L115.448,227.227 L115.448,224.895 L113.809,224.895 z" fill="#000000"/>
      <path d="M141.981,264.285 L143.557,264.285 L143.557,238.634 C147.212,236.302 151.12,235.168 154.775,235.168 C160.069,235.168 162.464,236.932 162.464,241.911 L162.464,264.285 L164.04,264.285 L164.04,241.659 C164.04,235.987 160.889,233.781 155.343,233.781 C151.561,233.781 147.338,234.916 143.62,237.184 L143.494,237.184 L143.494,234.222 L141.981,234.222 z" fill="#000000"/>
      <path d="M185.972,264.726 C190.321,264.726 193.535,263.718 195.363,262.646 L195.363,261.449 C193.346,262.331 190.195,263.339 186.161,263.339 C177.527,263.339 173.557,258.739 173.557,249.663 L173.557,248.592 L196.497,248.592 L196.497,247.835 C196.497,239.075 192.968,233.781 184.901,233.781 C177.716,233.781 171.981,238.634 171.981,248.97 L171.981,249.663 C171.981,259.558 176.645,264.726 185.972,264.726 z M184.838,235.105 C191.77,235.105 194.796,239.705 194.796,247.268 L173.62,247.268 C174.124,239.012 178.851,235.105 184.838,235.105 z" fill="#000000"/>
      <path d="M212.758,264.537 C214.711,264.537 216.413,263.97 217.295,263.655 L217.295,262.394 C216.098,262.772 214.522,263.087 213.073,263.087 C209.102,263.087 207.968,261.701 207.968,258.361 L207.968,235.609 L216.665,235.609 L216.665,234.159 L207.968,234.159 L207.968,227.038 L206.392,227.038 L206.392,234.159 L201.854,234.159 L201.854,235.609 L206.392,235.609 L206.392,258.613 C206.392,262.52 208.409,264.537 212.758,264.537 z" fill="#000000"/>
      <path d="M231.35,264.285 L233.115,264.285 L241.875,236.743 L241.938,236.743 L250.572,264.285 L252.211,264.285 L261.286,234.222 L259.774,234.222 L251.455,262.079 L251.392,262.079 L242.694,234.222 L241.119,234.222 L232.295,262.079 L232.232,262.079 L223.976,234.222 L222.337,234.222 z" fill="#000000"/>
      <path d="M279.941,264.726 C287.315,264.726 293.051,259.558 293.051,249.411 L293.051,248.844 C293.051,238.697 287.63,233.781 279.941,233.781 C272.631,233.781 266.895,238.886 266.895,248.97 L266.895,249.663 C266.895,259.81 272.253,264.726 279.941,264.726 z M279.941,263.402 C273.198,263.402 268.408,259.117 268.408,249.789 L268.408,248.907 C268.408,239.831 273.261,235.105 279.941,235.105 C286.685,235.105 291.538,239.075 291.538,248.718 L291.538,249.537 C291.538,258.802 286.685,263.402 279.941,263.402 z" fill="#000000"/>
      <path d="M301.118,264.285 L302.756,264.285 L302.756,239.579 C304.899,237.184 308.302,235.294 312.147,235.294 C312.714,235.294 313.407,235.42 313.911,235.546 L313.911,234.096 C313.533,233.97 312.84,233.907 312.21,233.907 C308.113,233.907 304.71,236.05 302.819,238.067 L302.693,238.067 L302.693,234.222 L301.118,234.222 z" fill="#000000"/>
      <path d="M321.663,264.096 L323.302,264.096 L323.302,219.979 L321.663,219.979 z M339.436,264.096 L341.516,264.096 L325.886,248.466 L340.634,234.096 L338.68,234.096 L324.058,248.529 z" fill="#000000"/>
    </g>
  </g>
</svg>
